# xmcd
#
# Track frame offsets:
# 150
# 16847
# 33142
# 47260
# 65105
# 78892
# 94932
# 108110
# 121305
# 136537
# 157530
#
# Disc length: 2345 seconds
#
#
# Revision: 5
# Processed by: cddbd v1.5.1PL2 Copyright (c) Steve Scherf et al.
# Submitted via: FreeRIP 2.945 
#
DISCID=6e09270b
DTITLE=Dan Seals - Best Of Dan Seals (Curb)
DYEAR=1900
DGENRE=Country
TTITLE0=Bop
TTITLE1=My Old Yellow Car
TTITLE2=God Must Be A Cowboy
TTITLE3=Meet Me In Montana
TTITLE4=Everybody's Dream Girl
TTITLE5=After You
TTITLE6=You Really Go For The Heart
TTITLE7=She Thinks I Still Care
TTITLE8=Maybe I'm Missing You
TTITLE9=Long Long Island Nights
TTITLE10=Twenty-Four Hour Love
EXTD=Dan Seals/Best of Dan Seals
EXTT0=
EXTT1=
EXTT2=
EXTT3=
EXTT4=
EXTT5=
EXTT6=
EXTT7=
EXTT8=
EXTT9=
EXTT10=
PLAYORDER=
